<svg viewBox="0 0 860 776" xmlns="http://www.w3.org/2000/svg" font-family="'Segoe UI', Helvetica, Arial, sans-serif">
  <rect x="0" y="0" width="860" height="776" fill="#ffffff"/>
  <text x="430.0" y="34" text-anchor="middle" font-size="22" font-weight="700" fill="#0f172a">AndroidUIAppiumTest_MyDemoEcommerce — Technology Stack</text>
  <text x="430.0" y="58" text-anchor="middle" font-size="13" font-style="italic" fill="#64748b">Automation architecture powering the MyDemo App and ApiDemos test suites</text>

  <rect x="40" y="96" width="780" height="80" rx="12" fill="#eff6ff" stroke="#3b82f6" stroke-width="1.5"/>
  <text x="58" y="118" font-size="11.5" font-weight="700" letter-spacing="1" fill="#1d4ed8">LANGUAGE &amp; BUILD</text>
  <rect x="276.0" y="130" width="85" height="30" rx="15" fill="#ffffff" stroke="#3b82f6" stroke-width="1.3"/>
  <text x="318.5" y="149.5" text-anchor="middle" font-size="12.3" font-weight="600" fill="#0f172a">Java 17</text>
  <rect x="375.0" y="130" width="209" height="30" rx="15" fill="#ffffff" stroke="#3b82f6" stroke-width="1.3"/>
  <text x="479.5" y="149.5" text-anchor="middle" font-size="12.3" font-weight="600" fill="#0f172a">Maven 3 (Surefire 3.2.5)</text>
  <rect x="40" y="210" width="780" height="80" rx="12" fill="#f0fdf4" stroke="#22c55e" stroke-width="1.5"/>
  <text x="58" y="232" font-size="11.5" font-weight="700" letter-spacing="1" fill="#15803d">TEST FRAMEWORK &amp; REPORTING</text>
  <rect x="273.0" y="244" width="128" height="30" rx="15" fill="#ffffff" stroke="#22c55e" stroke-width="1.3"/>
  <text x="337.0" y="263.5" text-anchor="middle" font-size="12.3" font-weight="600" fill="#0f172a">TestNG 7.10.2</text>
  <rect x="415.0" y="244" width="172" height="30" rx="15" fill="#ffffff" stroke="#22c55e" stroke-width="1.3"/>
  <text x="501.0" y="263.5" text-anchor="middle" font-size="12.3" font-weight="600" fill="#0f172a">ExtentReports 5.1.2</text>
  <rect x="40" y="324" width="780" height="80" rx="12" fill="#faf5ff" stroke="#a855f7" stroke-width="1.5"/>
  <text x="58" y="346" font-size="11.5" font-weight="700" letter-spacing="1" fill="#7e22ce">AUTOMATION CORE</text>
  <rect x="86.5" y="358" width="121" height="30" rx="15" fill="#ffffff" stroke="#a855f7" stroke-width="1.3"/>
  <text x="147.0" y="377.5" text-anchor="middle" font-size="12.3" font-weight="600" fill="#0f172a">Appium 3.5.2</text>
  <rect x="221.5" y="358" width="172" height="30" rx="15" fill="#ffffff" stroke="#a855f7" stroke-width="1.3"/>
  <text x="307.5" y="377.5" text-anchor="middle" font-size="12.3" font-weight="600" fill="#0f172a">UiAutomator2 Driver</text>
  <rect x="407.5" y="358" width="209" height="30" rx="15" fill="#ffffff" stroke="#a855f7" stroke-width="1.3"/>
  <text x="512.0" y="377.5" text-anchor="middle" font-size="12.3" font-weight="600" fill="#0f172a">Appium Java Client 9.5.0</text>
  <rect x="630.5" y="358" width="143" height="30" rx="15" fill="#ffffff" stroke="#a855f7" stroke-width="1.3"/>
  <text x="702.0" y="377.5" text-anchor="middle" font-size="12.3" font-weight="600" fill="#0f172a">Selenium 4.32.0</text>
  <rect x="40" y="438" width="780" height="80" rx="12" fill="#fff7ed" stroke="#f97316" stroke-width="1.5"/>
  <text x="58" y="460" font-size="11.5" font-weight="700" letter-spacing="1" fill="#c2410c">API TESTING</text>
  <rect x="347.5" y="472" width="165" height="30" rx="15" fill="#ffffff" stroke="#f97316" stroke-width="1.3"/>
  <text x="430.0" y="491.5" text-anchor="middle" font-size="12.3" font-weight="600" fill="#0f172a">REST Assured 5.4.0</text>
  <rect x="40" y="552" width="780" height="80" rx="12" fill="#fefce8" stroke="#eab308" stroke-width="1.5"/>
  <text x="58" y="574" font-size="11.5" font-weight="700" letter-spacing="1" fill="#a16207">DESIGN PATTERN</text>
  <rect x="260.0" y="586" width="340" height="30" rx="15" fill="#ffffff" stroke="#eab308" stroke-width="1.3"/>
  <text x="430.0" y="605.5" text-anchor="middle" font-size="12.3" font-weight="600" fill="#0f172a">Page Object Model  (pages/mydemo, pages/*)</text>
  <rect x="40" y="666" width="780" height="80" rx="12" fill="#ecfdf5" stroke="#10b981" stroke-width="1.5"/>
  <text x="58" y="688" font-size="11.5" font-weight="700" letter-spacing="1" fill="#047857">TARGET APPS &amp; DEVICE</text>
  <rect x="44.5" y="700" width="304" height="30" rx="15" fill="#ffffff" stroke="#10b981" stroke-width="1.3"/>
  <text x="196.5" y="719.5" text-anchor="middle" font-size="12.3" font-weight="600" fill="#0f172a">MyDemo App — 75 tests / 12 categories</text>
  <rect x="362.5" y="700" width="121" height="30" rx="15" fill="#ffffff" stroke="#10b981" stroke-width="1.3"/>
  <text x="423.0" y="719.5" text-anchor="middle" font-size="12.3" font-weight="600" fill="#0f172a">ApiDemos App</text>
  <rect x="497.5" y="700" width="318" height="30" rx="15" fill="#ffffff" stroke="#10b981" stroke-width="1.3"/>
  <text x="656.5" y="719.5" text-anchor="middle" font-size="12.3" font-weight="600" fill="#0f172a">Android Emulator API 31 (emulator-5554)</text>
  <line x1="430.0" y1="180" x2="430.0" y2="202" stroke="#94a3b8" stroke-width="2"/>
  <polygon points="424.0,194 436.0,194 430.0,202" fill="#94a3b8"/>
  <line x1="430.0" y1="294" x2="430.0" y2="316" stroke="#94a3b8" stroke-width="2"/>
  <polygon points="424.0,308 436.0,308 430.0,316" fill="#94a3b8"/>
  <line x1="430.0" y1="408" x2="430.0" y2="430" stroke="#94a3b8" stroke-width="2"/>
  <polygon points="424.0,422 436.0,422 430.0,430" fill="#94a3b8"/>
  <line x1="430.0" y1="522" x2="430.0" y2="544" stroke="#94a3b8" stroke-width="2"/>
  <polygon points="424.0,536 436.0,536 430.0,544" fill="#94a3b8"/>
  <line x1="430.0" y1="636" x2="430.0" y2="658" stroke="#94a3b8" stroke-width="2"/>
  <polygon points="424.0,650 436.0,650 430.0,658" fill="#94a3b8"/>
</svg>